<svg xmlns="http://www.w3.org/2000/svg" data-name="Layer 1" viewBox="0 0 100 125" x="0px" y="0px"><title>17</title><g data-name="Group"><path data-name="Path" d="M87.9,12.1a4,4,0,0,0-5.7,0L46.4,48V35.9a4,4,0,0,0-8,0V57.6a4,4,0,0,0,.1.8v.7l.2.4.2.3A4,4,0,0,0,40.2,61l.3.2.4.2H64.1a4,4,0,0,0,0-8H52L87.9,17.7A4,4,0,0,0,87.9,12.1Z"/><path data-name="Path" d="M24.9,89.1H68.2a14,14,0,0,0,14-14V48.9a4,4,0,0,0-8,0V75.1a6,6,0,0,1-6,6H24.9a6,6,0,0,1-6-6V31.8a6,6,0,0,1,6-6H51.1a4,4,0,0,0,0-8H24.9a14,14,0,0,0-14,14V75.1A14,14,0,0,0,24.9,89.1Z"/></g><text x="0" y="115" fill="#000000" font-size="5px" font-weight="bold" font-family="'Helvetica Neue', Helvetica, Arial-Unicode, Arial, Sans-serif">Created by Satisfactory</text><text x="0" y="120" fill="#000000" font-size="5px" font-weight="bold" font-family="'Helvetica Neue', Helvetica, Arial-Unicode, Arial, Sans-serif">from the Noun Project</text></svg>